PathFileType	4	(X/Y/Z)	OpenSim_Sub06_EMGStiffKnee_Gyro.trc
DataRate	CameraRate	NumFrames	NumMarkers	Units	OrigDataRate	OrigDataStartFrame	OrigNumFrames
100	100	34	8	m	100	1	5432
Frame#	Time	torso_imu_offset_imu	pelvis_imu_offset_imu	tibia_r_imu_offset_imu	femur_r_imu_offset_imu	tibia_l_imu_offset_imu	femur_l_imu_offset_imu	toes_r_imu_offset_imu	toes_l_imu_offset_imu
				X1	Y1	Z1	X2	Y2	Z2	X3	Y3	Z3	X4	Y4	Z4	X5	Y5	Z5	X6	Y6	Z6	X7	Y7	Z7	X8		Y8	Z8	

1	0	-0.35073000	0.04081300	-0.10403600	0.03456400	-0.15089600	0.12769300	-1.21431900	-0.55995400	1.82637200	0.14731900	-0.82193700	0.51624000	0.28566600	0.32797600	1.06257100	-0.00141200	-0.16473000	0.78205400	-1.52824800	1.71709000	0.57221200	-0.06133500	-0.25142200	0.21033200
2	0.01000000	-0.31898600	0.05043400	-0.06809400	0.04599000	-0.09452100	0.11395700	-1.52193000	-0.71307500	1.37692600	-0.28311100	-0.68118100	0.58748700	0.45128400	0.35077300	1.14157000	0.15400000	-0.17433200	0.72741800	-1.53654100	1.36524800	0.24015500	-0.06927600	-0.24820500	0.27693100
3	0.02000000	-0.28354500	0.08737900	-0.06280300	0.08337100	-0.05032900	0.09046100	-1.90033900	-0.80156800	0.91862200	-0.54059400	-0.55233800	0.60574600	0.61357500	0.38351300	1.23293100	0.28865900	-0.16480800	0.62534700	-1.37142500	0.95437600	-0.00177700	-0.06682500	-0.25704300	0.34887700
4	0.03000000	-0.26486000	0.10519800	-0.03903800	0.13497700	-0.04060200	0.05684500	-2.10878900	-0.82658000	0.44942100	-0.56385900	-0.49829400	0.59132500	0.71278000	0.44247700	1.29416000	0.36849000	-0.16919300	0.50588600	-1.09981000	0.50938800	-0.10839100	-0.13073100	-0.25620800	0.44018300
5	0.04000000	-0.21931500	0.14219200	0.00410600	0.21147600	-0.05160700	0.02582900	-1.99389900	-0.79991300	0.01229300	-0.47277400	-0.52866000	0.55584300	0.74216900	0.50886900	1.32603700	0.37657900	-0.16339800	0.39366700	-0.69514400	0.05906200	-0.12411400	-0.14668600	-0.26414800	0.51629700
6	0.05000000	-0.17634100	0.19581100	0.05212700	0.31022900	-0.08465000	-0.00640600	-1.58767300	-0.74309900	-0.36786700	-0.35265400	-0.57047300	0.52801600	0.68168000	0.56704500	1.38209200	0.38275500	-0.14238600	0.35351700	-0.19528800	-0.37358500	-0.09774500	-0.22075100	-0.26525700	0.58245600
7	0.06000000	-0.12980200	0.22588500	0.07702700	0.40252200	-0.12161100	-0.04206100	-0.92539000	-0.64974900	-0.70366900	-0.30134600	-0.57011700	0.50175800	0.54466400	0.62063800	1.46184000	0.35652400	-0.12635200	0.29341500	0.18650400	-0.73165100	-0.06195000	-0.25999900	-0.27724500	0.61983400
8	0.07000000	-0.09381500	0.27261400	0.10153800	0.51688000	-0.15420900	-0.05219600	-0.23475100	-0.56970200	-1.00075700	-0.32488100	-0.51523500	0.49018500	0.41301800	0.69060300	1.55633200	0.34626100	-0.09692200	0.24652300	0.35466900	-0.96648100	-0.07588800	-0.31674700	-0.30490400	0.61805400
9	0.08000000	-0.02660200	0.33686800	0.12145200	0.63613600	-0.19429100	-0.04603100	0.33329900	-0.53821500	-1.26527300	-0.38358800	-0.47060000	0.48187200	0.26212100	0.73318500	1.61815300	0.38928500	-0.05047200	0.22104800	0.19161900	-1.10506200	-0.22198700	-0.18076500	-0.35436300	0.59185900
10	0.09000000	0.06181200	0.39678000	0.14105500	0.73702300	-0.21835700	-0.05080200	0.76403000	-0.53281200	-1.44920700	-0.44882600	-0.52477500	0.44130600	0.10543900	0.76875200	1.66400200	0.41831400	-0.00574900	0.16191100	4.17990700	-2.20092300	-1.53399300	-0.31618100	-0.47842700	0.62646200
11	0.10000000	0.15949700	0.45218000	0.13713800	0.81541500	-0.24212900	-0.04071000	0.98163200	-0.41563400	-1.57104100	-0.52788400	-0.68654200	0.37449800	-0.07638800	0.78838600	1.74417200	0.45702100	0.03967400	0.11580700	3.37081600	-2.90667200	-0.96841900	-0.36000400	-0.56878000	0.62924700
12	0.11000000	0.24983000	0.49139400	0.10840200	0.88318600	-0.31551300	-0.01253300	1.13843900	-0.67649400	-1.52588700	-0.62204900	-0.95022400	0.22557500	-0.25661100	0.77789500	1.85084700	0.51910000	0.05792700	0.05072200	0.83754300	-2.93554300	0.10087300	-0.28839000	-0.74103100	0.63128500
13	0.12000000	0.31982900	0.47516100	0.03517600	0.88074900	-0.51623600	0.09237100	0.02298400	-1.53966700	-1.35482300	-0.68906400	-1.30316700	-0.09738200	-0.45882000	0.80721400	1.96095200	0.54182300	0.06092900	-0.03910500	2.36861000	-0.24490500	-1.04517200	-0.32552800	-1.01790800	0.64040000
14	0.13000000	0.28390700	0.42144700	-0.08948200	0.69568800	-0.87138300	0.35900400	-2.20694300	-1.54616300	-0.98777500	-0.91557300	-1.64772400	-0.74406200	-0.64995200	0.86943400	2.05529300	0.44543000	0.05806400	-0.16400700	-0.49901500	2.02166200	-1.38270700	-0.38752000	-1.41426100	0.66930300
15	0.14000000	0.12532900	0.39196000	-0.07142600	0.61135900	-0.99127900	0.74748200	-2.37831800	-0.10973600	-1.09522100	-0.82358300	-1.46131600	-1.47409800	-0.63238800	0.91838300	2.09267600	0.33026100	0.03243800	-0.26196600	0.35782300	0.89068100	0.09779900	-0.52848000	-1.88432100	0.75783000
16	0.15000000	0.16539100	0.41817500	0.06878500	0.34886600	-0.56705900	0.95370500	0.64304300	0.89659800	-2.33793600	1.11162400	0.14045000	-1.24902200	-0.64070000	0.93501300	2.11252400	0.05549500	-0.04638400	-0.33169700	0.89434200	-0.24555200	-0.32758700	-0.63473900	-2.26148700	0.88935100
17	0.16000000	0.21938200	0.23826800	0.08935100	-0.51498200	-0.28967900	0.56950400	1.93338700	0.78051600	-2.54569900	1.98668600	1.43209300	0.10904700	-0.82792400	0.85401700	2.23892500	-0.38161100	-0.13384400	-0.37940100	0.18908100	-0.04408200	0.08493500	-0.79614600	-2.77443300	1.00885100
18	0.17000000	0.16547700	0.08964000	0.05617300	-0.93249800	-0.16786400	0.07689400	1.95281800	0.48966400	-2.09556400	0.83426900	0.94146600	1.00927300	-0.74929100	0.67657800	2.42470500	-0.87548600	-0.22309500	-0.52624600	-0.06165900	-0.26129100	0.20775900	-0.66753900	-3.22987000	1.14437200
19	0.18000000	0.33417500	0.05569700	0.08360900	-0.92309100	0.07993400	-0.35469500	2.14127800	0.48621200	-1.77097800	0.05163300	0.01174400	1.12097800	-0.38118000	0.46206000	2.57178900	-1.31303500	-0.18307400	-0.84390200	-0.18189200	-0.32737200	0.27179000	-0.93623600	-3.57578300	1.29147200
20	0.19000000	0.46414900	-0.01721900	0.16941800	-0.54554200	0.22971400	-0.63838800	2.11868400	0.03086400	-1.48670100	0.21771700	-0.42936500	0.69497200	-0.28138500	0.32968700	2.67182800	-1.34278500	0.09398100	-1.27669700	-0.17922800	-0.31476000	0.27828300	-0.93252700	-4.01239200	1.45510500
21	0.20000000	0.45894000	-0.12478700	0.30110400	0.01435000	0.25153900	-0.80162500	1.91153600	-0.68686700	-1.34154500	0.42282900	-0.46522600	0.04194300	-0.57670000	0.25542000	2.72259600	-0.99445200	0.47800300	-1.67485700	-0.16555700	-0.28850300	0.16957600	-1.25762900	-4.32031800	1.61560900
22	0.21000000	0.56359800	-0.20311300	0.37089900	0.48007800	0.18340600	-0.87137400	1.70259500	-0.87553600	-1.22569700	0.10951400	-0.33346600	-0.55057300	-0.76415200	0.21616900	2.74280700	-0.53730700	0.90341500	-1.93782600	-0.04507100	-0.23957800	0.02833200	-1.19575600	-4.65767000	1.60965800
23	0.22000000	0.78929000	-0.17284000	0.39910400	0.87677100	0.11234100	-0.80140600	1.53072900	-0.55085600	-0.68747800	-0.63312500	-0.28392900	-1.12938400	-0.55073300	0.25619900	2.74107200	-0.12885100	1.27287400	-2.04364800	0.03510300	-0.19468100	-0.09391700	-0.61179800	-5.10332000	1.62567900
24	0.23000000	0.97621300	-0.08665500	0.40104900	1.17000500	0.13931500	-0.56691700	1.04323900	-0.20574600	-0.02601000	-1.65963000	-0.55983700	-1.77781400	-0.36421900	0.37426500	2.61579600	0.06369900	1.48348800	-2.05381000	0.06795100	-0.19325300	-0.21805200	-0.32053500	-5.22296600	1.63506400
25	0.24000000	1.03233200	-0.00789900	0.35795200	1.35375900	0.27535100	-0.28438800	0.17415600	-0.25412300	-0.00959400	-2.63833800	-1.13783100	-2.09171800	-0.41632700	0.37210700	2.39131200	0.03125400	1.51925800	-2.06295300	0.08021900	-0.18526500	-0.27826300	-0.58369300	-4.91880500	1.55758500
26	0.25000000	1.03820900	0.01512200	0.27023800	1.50276900	0.40797200	-0.01567800	-0.62023200	-0.45159900	-0.26946800	-3.07084300	-1.34455000	-2.07832600	-0.62847300	0.20898800	2.12555500	-0.21628500	1.34294900	-2.06598900	0.04715400	-0.18682900	-0.26333600	0.43222700	-4.41635400	1.29768300
27	0.26000000	1.06397000	0.00972600	0.18089200	1.60810300	0.43204300	0.19534200	-1.10679800	-0.32554800	-0.48984500	-2.55396100	-0.66525600	-1.85651800	-0.81127900	0.00584700	1.87135500	-0.52271900	1.13347300	-2.07638100	0.01359500	-0.22533900	-0.21008300	0.78941800	-3.69939200	1.16751500
28	0.27000000	1.07837800	-0.04524500	0.10822500	1.59396300	0.36645100	0.31876400	-1.33163900	-0.21762300	-0.66823600	-1.25600700	0.26282000	-1.51557900	-0.90332900	-0.27432800	1.66953300	-0.68297500	0.91798300	-2.11026200	-0.03524400	-0.27177300	-0.12784400	-0.75771600	-2.07165200	0.85840800
29	0.28000000	1.04017300	-0.11409000	0.09099200	1.44525800	0.27109700	0.40403900	-1.21647300	-0.24838400	-0.83823100	-0.14892400	0.49882000	-1.24190100	-0.58589600	-0.64438800	1.35502400	-0.61261300	0.75051400	-2.09617800	-0.09957800	-0.34877400	-0.03576500	0.73313100	-0.83935000	0.13848500
30	0.29000000	1.04300900	-0.16489900	0.11627900	1.21618600	0.23903800	0.47976100	-0.72829800	-0.29163900	-0.94718400	0.11158000	0.26767400	-1.07472700	0.51761400	-0.74784200	0.60025300	-0.36031000	0.58696100	-1.95494500	-0.15642900	-0.40680700	0.02891800	-0.50056100	1.33984200	-0.39836300
31	0.30000000	1.06664100	-0.24114300	0.20364000	0.96776200	0.27513300	0.49426100	0.05324400	-0.28190600	-0.81986900	0.35226700	0.05543600	-0.92121100	1.83034900	-0.40240000	-0.65652500	-0.10634900	0.42324100	-1.67729700	-0.16292700	-0.45034600	0.03436800	0.38450900	0.09598800	-0.28029800
32	0.31000000	1.10171000	-0.26603100	0.32967600	0.79654700	0.31326800	0.44689900	0.79031900	-0.18605800	-0.52245700	0.79113700	-0.05415200	-0.88757700	2.32290400	0.19422700	-1.79622500	0.10802400	0.40399900	-1.42147600	-0.14098000	-0.45286500	0.02266400	0.36551000	1.10571600	-0.55111700
33	0.32000000	1.12283900	-0.19967500	0.48284400	0.73344300	0.32515400	0.37109400	1.19326500	-0.16599000	-0.32427400	1.09187300	-0.15885100	-0.88533600	1.85633900	0.45864300	-2.36478900	0.51326900	0.57744100	-1.35735500	-0.08191200	-0.45479200	-0.01518200	0.49800900	2.02279500	-0.72023000
34	0.33000000	1.01570400	-0.17122600	0.58267800	0.77040800	0.34050400	0.26926400	1.29476000	-0.24883800	-0.26120100	1.20995200	-0.26933800	-0.87708200	1.02907300	0.19666300	-2.49464600	1.08099600	0.73789500	-1.49070200	-0.05661500	-0.42869100	-0.08128200	0.46161200	2.59973800	-0.72473500
